<?xml version="1.0" encoding="UTF-8"?>
<svg xmlns="http://www.w3.org/2000/svg" xmlns:xlink="http://www.w3.org/1999/xlink" width="193pt" height="103pt" viewBox="0 0 193 103" version="1.1">
<defs>
<clipPath id="clip1">
  <path d="M 0 0 L 192 0 L 192 102 L 0 102 Z M 0 0 "/>
</clipPath>
</defs>
<g id="surface90">
<g clip-path="url(#clip1)" clip-rule="nonzero">
<path style="fill:none;stroke-width:2.88;stroke-linecap:square;stroke-linejoin:miter;stroke:rgb(99.998474%,0%,0%);stroke-opacity:1;stroke-dasharray:5,5;stroke-miterlimit:3.25;" d="M 120.746094 102.898438 L 118.519531 102.898438 L 118.402344 100.808594 L 118.046875 98.757813 L 117.472656 96.785156 L 116.695313 94.921875 L 115.75 93.199219 L 114.65625 91.632813 L 113.457031 90.238281 L 112.171875 89.015625 L 110.839844 87.964844 L 109.480469 87.082031 L 108.121094 86.355469 L 106.777344 85.773438 L 105.460938 85.324219 L 104.191406 84.988281 L 104.445313 83.6875 L 104.632813 82.277344 L 104.734375 80.753906 L 104.734375 79.117188 L 104.601563 77.359375 L 104.3125 75.492188 L 103.832031 73.523438 L 103.125 71.472656 L 102.160156 69.363281 L 100.90625 67.234375 L 99.332031 65.140625 L 97.421875 63.136719 L 95.171875 61.296875 L 92.601563 59.699219 L 94.207031 56.808594 L 96.195313 53.546875 L 96.761719 52.667969 L 97.363281 51.757813 L 98.003906 50.820313 L 98.679688 49.851563 L 99.398438 48.851563 L 100.160156 47.820313 L 100.972656 46.753906 L 101.835938 45.652344 L 102.757813 44.515625 L 103.742188 43.34375 L 104.792969 42.128906 L 105.917969 40.878906 L 107.125 39.589844 L 108.417969 38.257813 L 109.804688 36.890625 L 111.296875 35.480469 L 112.902344 34.03125 L 114.632813 32.542969 L 116.5 31.019531 L 118.519531 29.460938 L 120.703125 27.871094 L 123.066406 26.257813 L 125.632813 24.628906 L 128.414063 22.992188 L 131.433594 21.355469 L 134.71875 19.738281 L 138.292969 18.160156 L 142.179688 16.644531 L 146.40625 15.21875 L 151.003906 13.925781 L 155.996094 12.804688 L 161.414063 11.914063 L 167.277344 11.316406 L 173.601563 11.101563 L 180.390625 11.351563 L 187.640625 12.179688 L 195.320313 13.707031 L 203.371094 16.0625 L 211.710938 19.386719 L 220.207031 23.8125 L 228.679688 29.460938 L 236.910156 36.425781 L 244.628906 44.746094 L 251.542969 54.402344 L 257.339844 65.285156 L 261.726563 77.195313 L 264.46875 89.851563 L 265.398438 102.898438 L 120.746094 102.898438 " transform="matrix(1,0,0,1,-83,-6)"/>
</g>
</g>
</svg>
