<?xml version="1.0" encoding="UTF-8"?>
<svg xmlns="http://www.w3.org/2000/svg" xmlns:xlink="http://www.w3.org/1999/xlink" width="165pt" height="165pt" viewBox="0 0 165 165" version="1.1">
<defs>
<clipPath id="clip1">
  <path d="M 0 0 L 164 0 L 164 164 L 0 164 Z M 0 0 "/>
</clipPath>
</defs>
<g id="surface86">
<g clip-path="url(#clip1)" clip-rule="nonzero">
<path style="fill:none;stroke-width:2.46;stroke-linecap:square;stroke-linejoin:miter;stroke:rgb(99.998474%,0%,0%);stroke-opacity:1;stroke-dasharray:5,5;stroke-miterlimit:3.25;" d="M 165.023438 161.800781 L 91.199219 161.800781 L 91.578125 151.257813 L 92.707031 140.714844 L 94.589844 130.171875 L 97.222656 119.628906 L 100.613281 109.085938 L 104.753906 98.542969 L 109.648438 88 L 115.296875 77.457031 L 121.699219 66.914063 L 128.851563 56.371094 L 136.761719 45.828125 L 145.421875 35.285156 L 154.832031 24.742188 L 165 14.199219 L 175.167969 24.742188 L 184.578125 35.285156 L 193.238281 45.828125 L 201.148438 56.371094 L 208.300781 66.914063 L 214.703125 77.457031 L 220.351563 88 L 225.246094 98.542969 L 229.386719 109.085938 L 232.777344 119.628906 L 235.410156 130.171875 L 237.292969 140.714844 L 238.421875 151.257813 L 238.800781 161.800781 L 165.023438 161.800781 " transform="matrix(1,0,0,1,-83,-6)"/>
</g>
</g>
</svg>
