<?xml version="1.0" encoding="UTF-8"?>
<svg xmlns="http://www.w3.org/2000/svg" xmlns:xlink="http://www.w3.org/1999/xlink" width="169pt" height="169pt" viewBox="0 0 169 169" version="1.1">
<g id="surface82">
<path style="fill:none;stroke-width:2.526522;stroke-linecap:square;stroke-linejoin:miter;stroke:rgb(99.998474%,0%,0%);stroke-opacity:1;stroke-dasharray:5,5;stroke-miterlimit:3.25;" d="M 126.675781 166.011719 L 122.933594 166.011719 L 122.738281 162.484375 L 122.144531 159 L 121.167969 155.605469 L 119.8125 152.339844 L 118.105469 149.246094 L 116.058594 146.363281 L 113.703125 143.730469 L 111.070313 141.375 L 108.1875 139.332031 L 105.09375 137.621094 L 101.828125 136.269531 L 98.433594 135.289063 L 94.949219 134.699219 L 91.421875 134.5 L 91.421875 14.421875 L 108.394531 15.375 L 125.152344 18.222656 L 141.488281 22.929688 L 157.195313 29.433594 L 172.074219 37.65625 L 185.9375 47.496094 L 198.613281 58.820313 L 209.941406 71.496094 L 219.777344 85.363281 L 228 100.238281 L 234.507813 115.945313 L 239.210938 132.28125 L 242.058594 149.039063 L 243.011719 166.011719 L 126.675781 166.011719 " transform="matrix(1,0,0,1,-83,-6)"/>
</g>
</svg>
